<?xml version="1.0" encoding="utf-8"?>
<svg xmlns="http://www.w3.org/2000/svg" style="margin: auto; background: rgb(241, 242, 243); display: block; shape-rendering: auto; animation-play-state: running; animation-delay: 0s;" width="280" height="250" preserveAspectRatio="xMidYMid">
<style type="text/css" style="animation-play-state: running; animation-delay: 0s;">
  text {
    text-anchor: middle; font-size: 50px; opacity: 0;
  }
</style>
<g style="transform-origin: 140px 125px; transform: scale(1); animation-play-state: running; animation-delay: 0s;">
<g transform="translate(140,125)" style="animation-play-state: running; animation-delay: 0s;">
  <g transform="translate(0,0)" style="animation-play-state: running; animation-delay: 0s;"><g class="path" style="transform: scale(1); transform-origin: -60.925px -4.19975px; animation: 1s linear -0.5775s infinite normal forwards running beat-624f722f-4bb1-40f6-bd01-2d3ecc61df18;"><path d="M12.10-1.80L12.10-1.80L12.10-1.80Q11.45-0.95 10.33-0.25L10.33-0.25L10.33-0.25Q9.20 0.45 7.40 0.45L7.40 0.45L7.40 0.45Q5.60 0.45 4.35-0.70L4.35-0.70L4.35-0.70Q3.10-1.85 3.10-3.95L3.10-3.95L3.10-3.95Q3.10-4.35 3.20-5.25L3.20-5.25L6.45-23.25L6.45-23.25Q7.35-28.20 8.93-30.30L8.93-30.30L8.93-30.30Q10.50-32.40 13.10-32.40L13.10-32.40L13.10-32.40Q14.90-32.40 16.07-31.05L16.07-31.05L16.07-31.05Q17.25-29.70 17.25-26.95L17.25-26.95L17.25-26.95Q17.25-24.20 15.13-19.10L15.13-19.10L15.13-19.10Q13-14 13-11.65L13-11.65L12.10-11.65L12.10-11.65Q12.10-14.30 14.20-19.23L14.20-19.23L14.20-19.23Q16.30-24.15 16.30-27.10L16.30-27.10L16.30-27.10Q16.30-28.90 15.48-30.20L15.48-30.20L15.48-30.20Q14.65-31.50 13.45-31.50L13.45-31.50L13.45-31.50Q13.40-30.20 11.73-19.83L11.73-19.83L11.73-19.83Q10.05-9.45 8.40-0.55L8.40-0.55L8.40-0.55Q9.80-0.55 11-2L11-2L11-2Q12.20-3.45 12.70-4.90L12.70-4.90L13.25-6.40L14.15-6L14.15-6Q14-5.30 13.38-3.98L13.38-3.98L13.38-3.98Q12.75-2.65 12.10-1.80" fill="#aacced" stroke="none" stroke-width="none" transform="translate(-71.10003662109375,11.775246810913085)" style="fill: rgb(170, 204, 237); animation-play-state: running; animation-delay: 0s;"></path></g><g class="path" style="transform: scale(1); transform-origin: -44.45px 2.27525px; animation: 1s linear -0.495s infinite normal forwards running beat-624f722f-4bb1-40f6-bd01-2d3ecc61df18;"><path d="M24.70 0.45L24.70 0.45Q20.85 0.45 18.85-1.48L18.85-1.48L18.85-1.48Q16.85-3.40 16.85-6.33L16.85-6.33L16.85-6.33Q16.85-9.25 17.38-11.33L17.38-11.33L17.38-11.33Q17.90-13.40 19.10-15.33L19.10-15.33L19.10-15.33Q20.30-17.25 22.73-18.35L22.73-18.35L22.73-18.35Q25.15-19.45 28.77-19.45L28.77-19.45L28.77-19.45Q32.40-19.45 34.43-17.53L34.43-17.53L34.43-17.53Q36.45-15.60 36.45-12.25L36.45-12.25L36.45-12.25Q36.45-6.55 33.43-3.05L33.43-3.05L33.43-3.05Q30.40 0.45 24.70 0.45L24.70 0.45zM22.50-4.70L22.50-4.70L22.50-4.70Q22.50-0.70 24.83-0.70L24.83-0.70L24.83-0.70Q27.15-0.70 28.98-4.73L28.98-4.73L28.98-4.73Q30.80-8.75 30.80-14.30L30.80-14.30L30.80-14.30Q30.80-18.50 28.52-18.50L28.52-18.50L28.52-18.50Q26.25-18.50 24.38-14.68L24.38-14.68L24.38-14.68Q22.50-10.85 22.50-4.70" fill="#aacced" stroke="none" stroke-width="none" transform="translate(-71.10003662109375,11.775246810913085)" style="fill: rgb(137, 191, 248); animation-play-state: running; animation-delay: 0s;"></path></g><g class="path" style="transform: scale(1); transform-origin: -21.4px 2.27525px; animation: 1s linear -0.4125s infinite normal forwards running beat-624f722f-4bb1-40f6-bd01-2d3ecc61df18;"><path d="M56.55 0.45L56.55 0.45L56.55 0.45Q52.15 0.45 51.75-3.40L51.75-3.40L51.75-3.40Q49.55 0.45 46.20 0.45L46.20 0.45L46.20 0.45Q42.85 0.45 40.88-1.58L40.88-1.58L40.88-1.58Q38.90-3.60 38.90-7.25L38.90-7.25L38.90-7.25Q38.90-12.95 41.70-16.20L41.70-16.20L41.70-16.20Q44.50-19.45 48.95-19.45L48.95-19.45L48.95-19.45Q52.60-19.45 53.80-16L53.80-16L53.80-16Q54.05-17.50 54.35-19L54.35-19L54.35-19Q58.05-19 59.85-19.30L59.85-19.30L60.50-19.45L57.05-0.55L57.05-0.55Q58.55-0.70 59.55-1.95L59.55-1.95L60.30-1.35L60.30-1.35Q58.80 0.45 56.55 0.45zM44.55-4.70L44.55-4.70Q44.55-2.45 45.13-1.58L45.13-1.58L45.13-1.58Q45.70-0.70 46.90-0.70L46.90-0.70L46.90-0.70Q48.10-0.70 49.35-2L49.35-2L49.35-2Q51-3.70 52-6.30L52-6.30L52-6.30Q52.15-6.95 52.58-9.43L52.58-9.43L52.58-9.43Q53-11.90 53.30-13.50L53.30-13.50L53.30-13.50Q53.15-15.40 52.25-16.80L52.25-16.80L52.25-16.80Q51.35-18.20 50-18.20L50-18.20L50-18.20Q47.55-18.20 46.05-13.83L46.05-13.83L46.05-13.83Q44.55-9.45 44.55-4.70L44.55-4.70" fill="#aacced" stroke="none" stroke-width="none" transform="translate(-71.10003662109375,11.775246810913085)" style="fill: rgb(64, 142, 224); animation-play-state: running; animation-delay: 0s;"></path></g><g class="path" style="transform: scale(1); transform-origin: 3.32496px -4.19975px; animation: 1s linear -0.33s infinite normal forwards running beat-624f722f-4bb1-40f6-bd01-2d3ecc61df18;"><path d="M80.45 0.45L80.45 0.45L80.45 0.45Q76.05 0.45 75.65-3.30L75.65-3.30L75.65-3.30Q73.45 0.45 70.05 0.45L70.05 0.45L70.05 0.45Q66.65 0.45 64.85-1.48L64.85-1.48L64.85-1.48Q63.05-3.40 63.05-6.75L63.05-6.75L63.05-6.75Q63.05-12.65 65.85-16.05L65.85-16.05L65.85-16.05Q68.65-19.45 73.10-19.45L73.10-19.45L73.10-19.45Q75.65-19.45 77.05-17.90L77.05-17.90L77.05-17.90Q77.65-17.10 77.80-16.70L77.80-16.70L80.50-31.40L80.50-31.40Q79-31.25 78-30L78-30L77.25-30.60L77.25-30.60Q78.75-32.40 81.03-32.40L81.03-32.40L81.03-32.40Q83.30-32.40 84.55-31.25L84.55-31.25L84.55-31.25Q85.80-30.10 85.80-28L85.80-28L85.80-28Q85.80-27.60 85.70-26.70L85.70-26.70L85.70-26.70Q83.25-12.95 80.95-0.55L80.95-0.55L80.95-0.55Q82.45-0.70 83.45-1.95L83.45-1.95L84.20-1.35L84.20-1.35Q82.70 0.45 80.45 0.45zM68.70-4.70L68.70-4.70Q68.70-2.40 69.18-1.55L69.18-1.55L69.18-1.55Q69.65-0.70 70.68-0.70L70.68-0.70L70.68-0.70Q71.70-0.70 72.65-1.40L72.65-1.40L72.65-1.40Q73.60-2.10 74.25-3.20L74.25-3.20L74.25-3.20Q75.45-5.05 75.95-6.35L75.95-6.35L77.40-14.25L77.40-14.25Q77.30-15.85 76.35-17.18L76.35-17.18L76.35-17.18Q75.40-18.50 73.10-18.50L73.10-18.50L73.10-18.50Q71.50-18.50 70.10-13.80L70.10-13.80L70.10-13.80Q68.70-9.10 68.70-4.70L68.70-4.70" fill="#aacced" stroke="none" stroke-width="none" transform="translate(-71.10003662109375,11.775246810913085)" style="fill: rgb(27, 117, 190); animation-play-state: running; animation-delay: 0s;"></path></g><g class="path" style="transform: scale(1); transform-origin: 20.925px 2.27525px; animation: 1s linear -0.2475s infinite normal forwards running beat-624f722f-4bb1-40f6-bd01-2d3ecc61df18;"><path d="M96.20-1.35L96.20-1.35Q94.70 0.45 92.45 0.45L92.45 0.45L92.45 0.45Q90.20 0.45 88.92-0.70L88.92-0.70L88.92-0.70Q87.65-1.85 87.65-3.70L87.65-3.70L87.65-3.70Q87.65-4.35 88.45-9.15L88.45-9.15L90.10-18.10L88-18.10L88.10-19L90.25-19L90.25-19Q93.95-19 95.70-19.30L95.70-19.30L96.40-19.45L92.95-0.55L92.95-0.55Q94.45-0.70 95.45-1.95L95.45-1.95L96.20-1.35" fill="#aacced" stroke="none" stroke-width="none" transform="translate(-71.10003662109375,11.775246810913085)" style="fill: rgb(0, 81, 162); animation-play-state: running; animation-delay: 0s;"></path></g><g class="path" style="transform: scale(1); transform-origin: 23.275px -15.0498px; animation: 1s linear -0.165s infinite normal forwards running beat-624f722f-4bb1-40f6-bd01-2d3ecc61df18;"><path d="M91.80-24.25L91.80-24.25L91.80-24.25Q90.75-25.30 90.75-26.80L90.75-26.80L90.75-26.80Q90.75-28.30 91.80-29.38L91.80-29.38L91.80-29.38Q92.85-30.45 94.35-30.45L94.35-30.45L94.35-30.45Q95.85-30.45 96.92-29.38L96.92-29.38L96.92-29.38Q98-28.30 98-26.80L98-26.80L98-26.80Q98-25.30 96.92-24.25L96.92-24.25L96.92-24.25Q95.85-23.20 94.35-23.20L94.35-23.20L94.35-23.20Q92.85-23.20 91.80-24.25" fill="#aacced" stroke="none" stroke-width="none" transform="translate(-71.10003662109375,11.775246810913085)" style="fill: rgb(170, 204, 237); animation-play-state: running; animation-delay: 0s;"></path></g><g class="path" style="transform: scale(1); transform-origin: 39.325px 2.27525px; animation: 1s linear -0.0825s infinite normal forwards running beat-624f722f-4bb1-40f6-bd01-2d3ecc61df18;"><path d="M118.40-0.55L118.40-0.55L118.40-0.55Q119.60-0.55 120.90-1.95L120.90-1.95L121.65-1.35L121.65-1.35Q121.30-0.65 120.10-0.10L120.10-0.10L120.10-0.10Q118.90 0.45 117.45 0.45L117.45 0.45L117.45 0.45Q112.90 0.45 112.90-3.65L112.90-3.65L112.90-3.65Q112.90-5.40 113.80-9.90L113.80-9.90L113.80-9.90Q114.70-14.40 114.70-15.80L114.70-15.80L114.70-15.80Q114.70-17.95 112.65-17.95L112.65-17.95L112.65-17.95Q111-17.95 109.47-15.80L109.47-15.80L109.47-15.80Q107.95-13.65 106.95-9.90L106.95-9.90L105.25-0.55L105.25-0.55Q106.80-0.70 107.80-1.95L107.80-1.95L108.55-1.35L108.55-1.35Q107.05 0.45 104.80 0.45L104.80 0.45L104.80 0.45Q102.55 0.45 101.27-0.70L101.27-0.70L101.27-0.70Q100-1.85 100-3.70L100-3.70L100-3.70Q100-4.40 100.80-9.20L100.80-9.20L102.45-18.45L102.45-18.45Q100.95-18.30 99.95-17.05L99.95-17.05L99.20-17.65L99.20-17.65Q100.70-19.45 102.97-19.45L102.97-19.45L102.97-19.45Q105.25-19.45 106.50-18.30L106.50-18.30L106.50-18.30Q107.75-17.15 107.75-15.05L107.75-15.05L107.75-14.75L107.75-14.75Q109.80-19.45 114.15-19.45L114.15-19.45L114.15-19.45Q117.10-19.45 118.75-17.78L118.75-17.78L118.75-17.78Q120.40-16.10 120.40-13.15L120.40-13.15L120.40-13.15Q120.40-11.60 119.45-7.18L119.45-7.18L119.45-7.18Q118.50-2.75 118.40-0.55" fill="#aacced" stroke="none" stroke-width="none" transform="translate(-71.10003662109375,11.775246810913085)" style="fill: rgb(137, 191, 248); animation-play-state: running; animation-delay: 0s;"></path></g><g class="path" style="transform: scale(1); transform-origin: 63px 6.65025px; animation: 1s linear 0s infinite normal forwards running beat-624f722f-4bb1-40f6-bd01-2d3ecc61df18;"><path d="M140.45 5.45L140.45 5.45L140.45 5.45Q142.25 5.45 143.55 4.05L143.55 4.05L144.25 4.65L144.25 4.65Q143.05 6.35 140.45 6.35L140.45 6.35L140.45 6.35Q139.35 6.35 138.20 6.10L138.20 6.10L138.20 6.10Q134.80 9.20 129.50 9.20L129.50 9.20L129.50 9.20Q126.35 9.20 124.63 8.13L124.63 8.13L124.63 8.13Q122.90 7.05 122.90 5.33L122.90 5.33L122.90 5.33Q122.90 3.60 123.97 2.58L123.97 2.58L123.97 2.58Q125.05 1.55 127.80 1.55L127.80 1.55L127.80 1.55Q130.55 1.55 135.05 3.80L135.05 3.80L136.60-4.50L136.60-4.50Q134.35-0.35 130.80-0.35L130.80-0.35L130.80-0.35Q124-0.35 124-7.05L124-7.05L124-7.05Q124-12.65 126.83-16.05L126.83-16.05L126.83-16.05Q129.65-19.45 134.05-19.45L134.05-19.45L134.05-19.45Q136.60-19.45 138-17.90L138-17.90L138-17.90Q138.40-17.45 138.80-16.55L138.80-16.55L139.25-19L139.25-19Q142.95-19 144.65-19.30L144.65-19.30L145.30-19.45L142-1L142-1Q141.25 2.90 139 5.30L139 5.30L139 5.30Q139.65 5.45 140.45 5.45zM129.65-5.50L129.65-5.50Q129.65-3.20 130.10-2.43L130.10-2.43L130.10-2.43Q130.55-1.65 131.80-1.65L131.80-1.65L131.80-1.65Q133.05-1.65 134.35-3L134.35-3L134.35-3Q135.65-4.35 136.22-5.53L136.22-5.53L136.22-5.53Q136.80-6.70 137.20-7.80L137.20-7.80L138.25-13.55L138.25-13.90L138.25-13.90Q138.25-18.50 134.05-18.50L134.05-18.50L134.05-18.50Q132.45-18.50 131.05-14.15L131.05-14.15L131.05-14.15Q129.65-9.80 129.65-5.50L129.65-5.50zM129.30 8.20L129.30 8.20L129.30 8.20Q133.30 8.20 134.70 4.75L134.70 4.75L134 4.40L134 4.40Q133.40 4.10 133.28 4.03L133.28 4.03L133.28 4.03Q133.15 3.95 132.60 3.70L132.60 3.70L132.60 3.70Q132.05 3.45 131.80 3.38L131.80 3.38L131.80 3.38Q131.55 3.30 131.03 3.10L131.03 3.10L131.03 3.10Q130.50 2.90 130.15 2.83L130.15 2.83L130.15 2.83Q129.80 2.75 129.35 2.65L129.35 2.65L129.35 2.65Q128.60 2.50 127.15 2.50L127.15 2.50L127.15 2.50Q125.70 2.50 124.83 3.20L124.83 3.20L124.83 3.20Q123.95 3.90 123.95 5.25L123.95 5.25L123.95 5.25Q123.95 6.60 125.40 7.40L125.40 7.40L125.40 7.40Q126.85 8.20 129.30 8.20" fill="#aacced" stroke="none" stroke-width="none" transform="translate(-71.10003662109375,11.775246810913085)" style="fill: rgb(64, 142, 224); animation-play-state: running; animation-delay: 0s;"></path></g></g>
</g>
</g>
<style id="beat-624f722f-4bb1-40f6-bd01-2d3ecc61df18" data-anikit="">@keyframes beat-624f722f-4bb1-40f6-bd01-2d3ecc61df18
{
  0% {
    animation-timing-function: cubic-bezier(0.1028,0.2484,0.1372,0.849);
    transform: scale(1);
  }
  34% {
    animation-timing-function: cubic-bezier(0.7116,0.2095,0.8159,0.6876);
    transform: scale(1.2);
  }
  68% {
    animation-timing-function: cubic-bezier(0.1475,0.2888,0.294,0.883);
    transform: scale(1.0268);
  }
  84% {
    animation-timing-function: cubic-bezier(0.8176,0.2193,0.867,0.6889);
    transform: scale(1.0932);
  }
  100% {
    transform: scale(1);
  }
}</style></svg>